<svg xmlns="http://www.w3.org/2000/svg" viewBox="0 0 64 64">
  <rect width="64" height="64" rx="14" fill="#ffffff"/>
  <g fill="#141414">
    <path d="M31.3 22 C30.5 17 28.8 13.5 28.8 10.3 C28.8 8.1 30.1 6.5 32 6.5 C33.9 6.5 35.2 8.1 35.2 10.3 C35.2 13.5 33.5 17 32.7 22 Z"/>
    <path d="M32 21.3 C37 20.5 40.5 18.8 43.7 18.8 C45.9 18.8 47.5 20.1 47.5 22 C47.5 23.9 45.9 25.2 43.7 25.2 C40.5 25.2 37 23.5 32 22.7 Z"/>
    <path d="M32 21.3 C27 20.5 23.5 18.8 20.3 18.8 C18.1 18.8 16.5 20.1 16.5 22 C16.5 23.9 18.1 25.2 20.3 25.2 C23.5 25.2 27 23.5 32 22.7 Z"/>
    <path d="M31.3 22 C30.6 26 29.6 31 29.6 37.5 C29.6 45 30.9 52 31.15 56.3 Q32 58.6 32.85 56.3 C33.1 52 34.4 45 34.4 37.5 C34.4 31 33.4 26 32.7 22 Z"/>
  </g>
</svg>
